# Blender v2.81 (sub 16) OBJ File: 'christmas tree.blend'
# www.blender.org
o Cone
v 0.000000 1.068921 -1.000000
v 0.382683 1.068921 -0.923880
v 0.707107 1.068921 -0.707107
v 0.923880 1.068921 -0.382683
v 1.000000 1.068921 0.000000
v 0.923880 1.068921 0.382684
v 0.707107 1.068921 0.707107
v 0.382683 1.068921 0.923880
v 0.000000 1.068921 1.000000
v -0.382683 1.068921 0.923880
v -0.707107 1.068921 0.707107
v 0.000000 5.351199 0.000000
v -0.923880 1.068921 0.382684
v -1.000000 1.068921 -0.000000
v -0.923879 1.068921 -0.382684
v -0.707107 1.068921 -0.707107
v -0.382683 1.068921 -0.923880
v 0.000000 0.067014 -0.400000
v 0.000000 1.075945 -0.400000
v 0.153073 0.067014 -0.369552
v 0.153073 1.075945 -0.369552
v 0.282843 0.067014 -0.282843
v 0.282843 1.075945 -0.282843
v 0.369552 0.067014 -0.153073
v 0.369552 1.075945 -0.153073
v 0.400000 0.067014 0.000000
v 0.400000 1.075945 0.000000
v 0.369552 0.067014 0.153073
v 0.369552 1.075945 0.153073
v 0.282843 0.067014 0.282843
v 0.282843 1.075945 0.282843
v 0.153073 0.067014 0.369552
v 0.153073 1.075945 0.369552
v 0.000000 0.067014 0.400000
v 0.000000 1.075945 0.400000
v -0.153073 0.067014 0.369552
v -0.153073 1.075945 0.369552
v -0.282843 0.067014 0.282843
v -0.282843 1.075945 0.282843
v -0.369552 0.067014 0.153073
v -0.369552 1.075945 0.153073
v -0.400000 0.067014 -0.000000
v -0.400000 1.075945 -0.000000
v -0.369552 0.067014 -0.153073
v -0.369552 1.075945 -0.153073
v -0.282843 0.067014 -0.282843
v -0.282843 1.075945 -0.282843
v -0.153073 0.067014 -0.369552
v -0.153073 1.075945 -0.369552
vt 0.618675 0.616168
vt 0.833972 0.000122
vt 0.663773 0.638259
vt 0.712559 0.662590
vt 0.767590 0.692810
vt 0.833972 0.737105
vt 0.092054 0.202456
vt 0.158395 0.261246
vt 0.210787 0.311503
vt 0.256101 0.355789
vt 0.297731 0.395546
vt 0.337516 0.431645
vt 0.376526 0.464635
vt 0.415397 0.494883
vt 0.454515 0.522675
vt 0.494138 0.548290
vt 0.534488 0.572064
vt 0.575848 0.594463
vt 0.834216 0.102627
vt 0.999878 0.077001
vt 0.999878 0.102627
vt 0.834216 0.077001
vt 0.999878 0.051375
vt 0.834216 0.051375
vt 0.999878 0.025749
vt 0.834217 0.025748
vt 0.999878 0.000123
vt 0.834216 0.410143
vt 0.999878 0.384516
vt 0.999878 0.410142
vt 0.834216 0.384516
vt 0.999878 0.358890
vt 0.834216 0.358890
vt 0.999878 0.333263
vt 0.834216 0.333264
vt 0.999878 0.307637
vt 0.834216 0.307637
vt 0.999878 0.282011
vt 0.834216 0.282011
vt 0.999878 0.256385
vt 0.834216 0.256385
vt 0.999878 0.230759
vt 0.834216 0.230759
vt 0.999878 0.205132
vt 0.834216 0.205132
vt 0.999878 0.179506
vt 0.834216 0.179506
vt 0.999878 0.153880
vt 0.834216 0.153880
vt 0.999878 0.128254
vt 0.834216 0.128253
vt 0.128954 0.905707
vt 0.051725 0.957310
vt 0.000122 0.880081
vt 0.546627 0.738608
vt 0.454686 0.700283
vt 0.501177 0.720371
vt 0.407780 0.677558
vt 0.361070 0.651843
vt 0.315077 0.623162
vt 0.270147 0.591855
vt 0.226364 0.558530
vt 0.140809 0.489381
vt 0.183474 0.524022
vt 0.097231 0.455915
vt 0.051081 0.425361
vt 0.000122 0.400307
vt 0.669854 0.798656
vt 0.699904 0.828234
vt 0.631868 0.775397
vt 0.590420 0.756302
vt 0.834217 0.000122
vt 0.077351 0.828478
vt 0.101027 0.838285
vt 0.119147 0.856405
vt 0.128954 0.880081
vt 0.119147 0.929383
vt 0.101027 0.947503
vt 0.077351 0.957310
vt 0.028049 0.947503
vt 0.009929 0.929383
vt 0.000122 0.905707
vt 0.009929 0.856405
vt 0.028049 0.838285
vt 0.051725 0.828478
vn 0.0000 -0.5822 -0.8130
vn 0.0000 1.0000 0.0000
vn 0.3111 -0.5822 -0.7511
vn 0.5749 -0.5822 -0.5749
vn 0.7511 -0.5822 -0.3111
vn 0.8130 -0.5822 0.0000
vn 0.7511 -0.5822 0.3111
vn 0.5749 -0.5822 0.5749
vn 0.3111 -0.5822 0.7511
vn 0.0000 -0.5822 0.8130
vn -0.3111 -0.5822 0.7511
vn -0.5749 -0.5822 0.5749
vn -0.7511 -0.5822 0.3111
vn -0.8130 -0.5822 0.0000
vn -0.7511 -0.5822 -0.3111
vn -0.5749 -0.5822 -0.5749
vn -0.3111 -0.5822 -0.7511
vn 0.0000 -0.7581 -0.6521
vn 0.2855 -0.6657 -0.6894
vn 0.0000 -0.6657 -0.7462
vn 0.2495 -0.7581 -0.6025
vn 0.5276 -0.6657 -0.5276
vn 0.4611 -0.7581 -0.4611
vn 0.6894 -0.6657 -0.2855
vn 0.6025 -0.7581 -0.2495
vn 0.7462 -0.6657 0.0000
vn 0.6521 -0.7581 0.0000
vn 0.6894 -0.6657 0.2855
vn 0.6025 -0.7581 0.2495
vn 0.5276 -0.6657 0.5276
vn 0.4611 -0.7581 0.4611
vn 0.2855 -0.6657 0.6894
vn 0.2495 -0.7581 0.6025
vn 0.0000 -0.6657 0.7462
vn 0.0000 -0.7581 0.6521
vn -0.2855 -0.6657 0.6894
vn -0.2495 -0.7581 0.6025
vn -0.5276 -0.6657 0.5276
vn -0.4611 -0.7581 0.4611
vn -0.6894 -0.6657 0.2855
vn -0.6025 -0.7581 0.2495
vn -0.7462 -0.6657 0.0000
vn -0.6521 -0.7581 0.0000
vn -0.6894 -0.6657 -0.2855
vn -0.6025 -0.7581 -0.2495
vn -0.5276 -0.6657 -0.5276
vn -0.4611 -0.7581 -0.4611
vn -0.2855 -0.6657 -0.6894
vn -0.2495 -0.7581 -0.6025
s 1
f 1/1/1 12/2/2 2/3/3
f 2/3/3 12/2/2 3/4/4
f 3/4/4 12/2/2 4/5/5
f 4/5/5 12/2/2 5/6/6
f 5/7/6 12/2/2 6/8/7
f 6/8/7 12/2/2 7/9/8
f 7/9/8 12/2/2 8/10/9
f 8/10/9 12/2/2 9/11/10
f 9/11/10 12/2/2 10/12/11
f 10/12/11 12/2/2 11/13/12
f 11/13/12 12/2/2 13/14/13
f 13/14/13 12/2/2 14/15/14
f 14/15/14 12/2/2 15/16/15
f 15/16/15 12/2/2 16/17/16
f 16/17/16 12/2/2 17/18/17
f 17/18/17 12/2/2 1/1/1
f 19/19/18 20/20/19 18/21/20
f 21/22/21 22/23/22 20/20/19
f 23/24/23 24/25/24 22/23/22
f 25/26/25 26/27/26 24/25/24
f 27/28/27 28/29/28 26/30/26
f 29/31/29 30/32/30 28/29/28
f 31/33/31 32/34/32 30/32/30
f 33/35/33 34/36/34 32/34/32
f 35/37/35 36/38/36 34/36/34
f 37/39/37 38/40/38 36/38/36
f 39/41/39 40/42/40 38/40/38
f 41/43/41 42/44/42 40/42/40
f 43/45/43 44/46/44 42/44/42
f 45/47/45 46/48/46 44/46/44
f 47/49/47 48/50/48 46/48/46
f 49/51/49 18/21/20 48/50/48
f 24/52/24 32/53/32 40/54/40
f 19/55/18 17/18/17 1/1/1
f 47/56/47 17/18/17 49/57/49
f 45/58/45 16/17/16 47/56/47
f 43/59/43 15/16/15 45/58/45
f 41/60/41 14/15/14 43/59/43
f 39/61/39 13/14/13 41/60/41
f 37/62/37 11/13/12 39/61/39
f 37/62/37 9/11/10 10/12/11
f 33/63/33 9/11/10 35/64/35
f 31/65/31 8/10/9 33/63/33
f 29/66/29 7/9/8 31/65/31
f 27/67/27 6/8/7 29/66/29
f 25/68/25 5/6/6 27/69/27
f 23/70/23 4/5/5 25/68/25
f 23/70/23 2/3/3 3/4/4
f 19/55/18 2/3/3 21/71/21
f 19/19/18 21/22/21 20/20/19
f 21/22/21 23/24/23 22/23/22
f 23/24/23 25/26/25 24/25/24
f 25/26/25 27/72/27 26/27/26
f 27/28/27 29/31/29 28/29/28
f 29/31/29 31/33/31 30/32/30
f 31/33/31 33/35/33 32/34/32
f 33/35/33 35/37/35 34/36/34
f 35/37/35 37/39/37 36/38/36
f 37/39/37 39/41/39 38/40/38
f 39/41/39 41/43/41 40/42/40
f 41/43/41 43/45/43 42/44/42
f 43/45/43 45/47/45 44/46/44
f 45/47/45 47/49/47 46/48/46
f 47/49/47 49/51/49 48/50/48
f 49/51/49 19/19/18 18/21/20
f 48/73/48 18/74/20 20/75/19
f 20/75/19 22/76/22 48/73/48
f 22/76/22 24/52/24 48/73/48
f 24/52/24 26/77/26 28/78/28
f 28/78/28 30/79/30 24/52/24
f 30/79/30 32/53/32 24/52/24
f 32/53/32 34/80/34 36/81/36
f 36/81/36 38/82/38 40/54/40
f 40/54/40 42/83/42 44/84/44
f 44/84/44 46/85/46 40/54/40
f 46/85/46 48/73/48 40/54/40
f 32/53/32 36/81/36 40/54/40
f 48/73/48 24/52/24 40/54/40
f 19/55/18 49/57/49 17/18/17
f 47/56/47 16/17/16 17/18/17
f 45/58/45 15/16/15 16/17/16
f 43/59/43 14/15/14 15/16/15
f 41/60/41 13/14/13 14/15/14
f 39/61/39 11/13/12 13/14/13
f 37/62/37 10/12/11 11/13/12
f 37/62/37 35/64/35 9/11/10
f 33/63/33 8/10/9 9/11/10
f 31/65/31 7/9/8 8/10/9
f 29/66/29 6/8/7 7/9/8
f 27/67/27 5/7/6 6/8/7
f 25/68/25 4/5/5 5/6/6
f 23/70/23 3/4/4 4/5/5
f 23/70/23 21/71/21 2/3/3
f 19/55/18 1/1/1 2/3/3
