# Blender v2.81 (sub 16) OBJ File: ''
# www.blender.org
o Cube
v -2.653578 2.553945 -2.553945
v -2.653578 -0.743266 -2.553945
v -2.653578 2.553945 2.553945
v -2.653578 -0.743266 2.553945
v -2.627795 3.344985 -2.627795
v -2.991930 -2.991930 -2.991930
v -2.627795 3.344985 2.627795
v -2.991930 -2.991930 2.991930
v 2.627795 3.344985 -2.627795
v 2.991930 -2.991930 -2.991930
v 2.627795 3.344985 2.627795
v 2.991930 -2.991930 2.991930
v 2.991930 2.614222 -2.614222
v 2.991930 -0.803543 -2.614222
v 2.991930 2.614222 2.614222
v 2.991930 -0.803543 2.614222
v 2.991930 2.991930 2.991930
v -2.991930 2.991930 2.991930
v 2.991930 2.991930 -2.991930
v -2.991930 2.991930 -2.991930
vt 0.850074 0.000335
vt 0.591190 0.259219
vt 0.591190 0.000335
vt 0.295763 0.295763
vt 0.590520 0.590520
vt 0.295763 0.590520
vt 0.590520 0.295092
vt 0.295763 0.000335
vt 0.590520 0.000335
vt 0.295092 0.295763
vt 0.000335 0.590520
vt 0.000335 0.295763
vt 0.574539 0.760215
vt 0.826147 0.922632
vt 0.574539 0.922632
vt 0.295092 0.295092
vt 0.000335 0.000335
vt 0.295092 0.000335
vt 0.972583 0.367686
vt 0.991188 0.554646
vt 0.972583 0.536041
vt 0.981059 0.778150
vt 0.999665 0.591190
vt 0.999665 0.885947
vt 0.961784 0.609796
vt 0.980389 0.885948
vt 0.961784 0.867343
vt 0.853316 0.609796
vt 0.961113 0.885947
vt 0.853316 0.867342
vt 0.591190 0.262858
vt 0.869297 0.428244
vt 0.591190 0.425275
vt 0.574539 0.594159
vt 0.852646 0.759545
vt 0.574539 0.756576
vt 0.295763 0.594159
vt 0.573869 0.848737
vt 0.295763 0.845767
vt 0.278441 0.845767
vt 0.000335 0.591190
vt 0.278441 0.594159
vt 0.921275 0.536710
vt 0.946258 0.259889
vt 0.946258 0.554647
vt 0.946929 0.536710
vt 0.971912 0.259889
vt 0.971912 0.554647
vt 0.895621 0.536710
vt 0.920604 0.259889
vt 0.920604 0.554647
vt 0.869967 0.536710
vt 0.894950 0.259889
vt 0.894951 0.554647
vt 0.850074 0.259219
vt 0.590520 0.295763
vt 0.295763 0.295092
vt 0.295092 0.590520
vt 0.826147 0.760215
vt 0.000335 0.295092
vt 0.991188 0.259889
vt 0.981059 0.609796
vt 0.980389 0.591190
vt 0.961113 0.591190
vt 0.869297 0.259889
vt 0.852646 0.591190
vt 0.573869 0.591190
vt 0.000335 0.848737
vt 0.921275 0.277826
vt 0.946929 0.277826
vt 0.895621 0.277826
vt 0.869967 0.277826
vn 0.0000 1.0000 0.0000
vn 0.0000 0.0000 1.0000
vn -1.0000 0.0000 0.0000
vn 0.0000 -1.0000 0.0000
vn 1.0000 0.0000 0.0000
vn 0.0000 0.0000 -1.0000
vn 0.0107 0.0000 0.9999
vn 0.0107 0.0000 -0.9999
vn 0.0107 -0.9999 0.0000
vn 0.0107 0.9999 0.0000
vn 0.0000 0.7179 0.6961
vn 0.6961 0.7179 0.0000
vn -0.6961 0.7179 0.0000
vn 0.0000 0.7179 -0.6961
s off
f 5/1/1 11/2/1 9/3/1
f 17/4/2 8/5/2 12/6/2
f 18/7/3 6/8/3 8/9/3
f 10/10/4 8/11/4 6/12/4
f 1/13/5 4/14/5 2/15/5
f 20/16/6 10/17/6 6/18/6
f 14/19/5 19/20/5 13/21/5
f 16/22/5 17/23/5 12/24/5
f 13/25/5 17/26/5 15/27/5
f 16/28/5 10/29/5 14/30/5
f 2/31/7 13/32/7 1/33/7
f 3/34/8 16/35/8 4/36/8
f 1/37/9 15/38/9 3/39/9
f 4/40/10 14/41/10 2/42/10
f 11/43/11 18/44/11 17/45/11
f 9/46/12 17/47/12 19/48/12
f 7/49/13 20/50/13 18/51/13
f 5/52/14 19/53/14 20/54/14
f 5/1/1 7/55/1 11/2/1
f 17/4/2 18/56/2 8/5/2
f 18/7/3 20/57/3 6/8/3
f 10/10/4 12/58/4 8/11/4
f 1/13/5 3/59/5 4/14/5
f 20/16/6 19/60/6 10/17/6
f 14/19/5 10/61/5 19/20/5
f 16/22/5 15/62/5 17/23/5
f 13/25/5 19/63/5 17/26/5
f 16/28/5 12/64/5 10/29/5
f 2/31/7 14/65/7 13/32/7
f 3/34/8 15/66/8 16/35/8
f 1/37/9 13/67/9 15/38/9
f 4/40/10 16/68/10 14/41/10
f 11/43/11 7/69/11 18/44/11
f 9/46/12 11/70/12 17/47/12
f 7/49/13 5/71/13 20/50/13
f 5/52/14 9/72/14 19/53/14
o Cube.001
v 0.178176 -0.377348 -0.460222
v 0.178176 -0.733701 -0.460222
v 0.178176 -0.377348 1.326189
v 0.178176 -0.733701 1.326189
v -0.178176 -0.377348 -0.460222
v -0.178176 -0.733701 -0.460222
v -0.178176 -0.377348 1.326189
v -0.178176 -0.733701 1.326189
vt 0.625000 0.000000
vt 0.375000 0.250000
vt 0.375000 0.000000
vt 0.625000 0.250000
vt 0.375000 0.500000
vt 0.625000 0.500000
vt 0.375000 0.750000
vt 0.625000 0.750000
vt 0.375000 1.000000
vt 0.125000 0.750000
vt 0.125000 0.500000
vt 0.875000 0.500000
vt 0.625000 1.000000
vt 0.875000 0.750000
vn -1.0000 0.0000 0.0000
vn 0.0000 0.0000 -1.0000
vn 1.0000 0.0000 0.0000
vn 0.0000 0.0000 1.0000
vn 0.0000 -1.0000 0.0000
vn 0.0000 1.0000 0.0000
s off
f 22/73/15 23/74/15 21/75/15
f 24/76/16 27/77/16 23/74/16
f 28/78/17 25/79/17 27/77/17
f 26/80/18 21/81/18 25/79/18
f 27/77/19 21/82/19 23/83/19
f 24/84/20 26/80/20 28/78/20
f 22/73/15 24/76/15 23/74/15
f 24/76/16 28/78/16 27/77/16
f 28/78/17 26/80/17 25/79/17
f 26/80/18 22/85/18 21/81/18
f 27/77/19 25/79/19 21/82/19
f 24/84/20 22/86/20 26/80/20
o Cube.002
v 0.177566 -0.444329 -1.395897
v 0.204692 -0.765826 -1.244601
v 0.107720 0.310923 0.221502
v 0.134846 -0.010575 0.372798
v -0.177479 -0.474804 -1.396999
v -0.150353 -0.796301 -1.245703
v -0.247325 0.280448 0.220400
v -0.220199 -0.041050 0.371696
vt 0.625000 0.000000
vt 0.375000 0.250000
vt 0.375000 0.000000
vt 0.625000 0.250000
vt 0.375000 0.500000
vt 0.625000 0.500000
vt 0.375000 0.750000
vt 0.625000 0.750000
vt 0.375000 1.000000
vt 0.125000 0.750000
vt 0.125000 0.500000
vt 0.875000 0.500000
vt 0.625000 1.000000
vt 0.875000 0.750000
vn -0.9963 -0.0855 -0.0031
vn 0.0391 -0.4228 -0.9054
vn 0.9963 0.0855 0.0031
vn -0.0391 0.4228 0.9054
vn 0.0761 -0.9022 0.4246
vn -0.0761 0.9022 -0.4246
s off
f 30/87/21 31/88/21 29/89/21
f 32/90/22 35/91/22 31/88/22
f 36/92/23 33/93/23 35/91/23
f 34/94/24 29/95/24 33/93/24
f 35/91/25 29/96/25 31/97/25
f 32/98/26 34/94/26 36/92/26
f 30/87/21 32/90/21 31/88/21
f 32/90/22 36/92/22 35/91/22
f 36/92/23 34/94/23 33/93/23
f 34/94/24 30/99/24 29/95/24
f 35/91/25 33/93/25 29/96/25
f 32/98/26 30/100/26 34/94/26
o Cube.003
v 1.195447 -0.573998 0.715877
v 0.989307 -0.864675 0.715877
v -0.261732 0.459391 0.715330
v -0.467872 0.168714 0.715330
v 1.195536 -0.574061 0.359524
v 0.989396 -0.864738 0.359524
v -0.261643 0.459328 0.358978
v -0.467783 0.168651 0.358978
vt 0.625000 0.000000
vt 0.375000 0.250000
vt 0.375000 0.000000
vt 0.625000 0.250000
vt 0.375000 0.500000
vt 0.625000 0.500000
vt 0.375000 0.750000
vt 0.625000 0.750000
vt 0.375000 1.000000
vt 0.125000 0.750000
vt 0.125000 0.500000
vt 0.875000 0.500000
vt 0.625000 1.000000
vt 0.875000 0.750000
vn 0.0002 -0.0002 -1.0000
vn 0.8157 -0.5785 0.0003
vn -0.0002 0.0002 1.0000
vn -0.8157 0.5785 -0.0003
vn -0.5785 -0.8157 -0.0000
vn 0.5785 0.8157 0.0000
s off
f 38/101/27 39/102/27 37/103/27
f 40/104/28 43/105/28 39/102/28
f 44/106/29 41/107/29 43/105/29
f 42/108/30 37/109/30 41/107/30
f 43/105/31 37/110/31 39/111/31
f 40/112/32 42/108/32 44/106/32
f 38/101/27 40/104/27 39/102/27
f 40/104/28 44/106/28 43/105/28
f 44/106/29 42/108/29 41/107/29
f 42/108/30 38/113/30 37/109/30
f 43/105/31 41/107/31 37/110/31
f 40/112/32 38/114/32 42/108/32
