# Blender v2.81 (sub 16) OBJ File: 'floor.blend'
# www.blender.org
o Cube
v -0.083360 0.295202 -16.892469
v 13.830596 0.295202 -16.892469
v -0.083360 0.295202 -0.131920
v 13.830596 0.295202 -0.131920
v 13.830596 -0.117394 -16.892469
v 13.830596 -0.117394 -0.131920
v -0.083360 -0.117394 -0.131920
v -0.083360 -0.117394 -16.892469
vt 0.985805 0.000000
vt 0.971609 0.602293
vt 0.971609 0.000000
vt 0.985805 0.500000
vt 1.000000 1.000000
vt 0.985805 1.000000
vt 0.957414 0.602293
vt 0.971609 0.000000
vt 0.971609 0.602293
vt 1.000000 0.500000
vt 0.985805 0.000000
vt 1.000000 0.000000
vt 0.957414 0.000000
vt 0.478707 0.602293
vt 0.478707 0.000000
vt 0.478707 0.602293
vt 0.000000 0.000000
vt 0.478707 0.000000
vt 0.985805 0.602293
vt 1.000000 0.500000
vt 0.957414 0.000000
vt 0.985805 0.500000
vt 0.957414 0.602293
vt 0.000000 0.602293
vn -1.0000 0.0000 0.0000
vn 0.0000 0.0000 1.0000
vn 1.0000 0.0000 0.0000
vn 0.0000 0.0000 -1.0000
vn -0.0000 1.0000 0.0000
vn 0.0000 -1.0000 0.0000
s off
f 8/1/1 3/2/1 1/3/1
f 3/4/2 6/5/2 4/6/2
f 2/7/3 6/8/3 5/9/3
f 8/10/4 2/11/4 5/12/4
f 1/13/5 4/14/5 2/15/5
f 6/16/6 8/17/6 5/18/6
f 8/1/1 7/19/1 3/2/1
f 3/4/2 7/20/2 6/5/2
f 2/7/3 4/21/3 6/8/3
f 8/10/4 1/22/4 2/11/4
f 1/13/5 3/23/5 4/14/5
f 6/16/6 7/24/6 8/17/6
