# Blender v2.81 (sub 16) OBJ File: 'pictureFrame.blend'
# www.blender.org
o Cube_Cube.001
v -0.337139 0.004137 1.479098
v -0.337139 2.004137 1.479098
v -0.337139 0.004137 -0.000058
v -0.337139 2.004137 -0.000058
v -0.009644 0.114629 1.368605
v -0.009644 1.893644 1.368605
v -0.009644 0.114629 0.110435
v -0.009644 1.893644 0.110435
v -0.009644 2.004137 -0.000058
v -0.009644 0.004137 -0.000058
v -0.009644 0.004137 1.479098
v -0.009644 2.004137 1.479098
v -0.337139 0.114629 0.110435
v -0.337139 0.004137 1.479098
v -0.337139 1.893644 1.368605
v -0.337139 2.004137 1.479098
v -0.337139 1.893644 0.110435
v -0.337139 0.004137 -0.000058
v -0.337139 1.893644 1.368605
v -0.337139 0.114629 0.110435
v -0.337139 0.114629 1.368605
v -0.337139 0.114629 1.368605
v -0.337139 1.893644 0.110435
v -0.337139 2.004137 -0.000058
v -0.337139 1.004137 0.110435
v -0.169199 1.893644 1.368605
v -0.169199 1.893644 0.110435
v -0.169199 0.114629 0.110435
v -0.169199 0.114629 1.368605
vt 0.000000 0.529238
vt 0.030580 0.500000
vt 0.409364 0.529238
vt 0.909364 0.529238
vt 0.818728 0.000000
vt 0.909364 0.000000
vt 0.392363 0.529238
vt 0.438841 1.000000
vt 0.392363 1.000000
vt 0.909364 0.000000
vt 1.000000 0.529238
vt 0.909364 0.529238
vt 0.620113 0.920651
vt 0.710749 0.529238
vt 0.710749 0.920651
vt 0.529477 0.920651
vt 0.620113 0.529238
vt 0.620113 0.920651
vt 0.439944 0.500000
vt 0.409364 0.000000
vt 0.439944 0.029239
vt 0.788149 0.500000
vt 0.409364 0.529238
vt 0.818728 0.000000
vt 0.788149 0.029239
vt 0.818728 0.529238
vt 0.847863 0.862175
vt 0.801385 0.529239
vt 0.847863 0.529239
vt 0.754906 0.529238
vt 0.801385 0.862175
vt 0.754907 0.862175
vt 0.482999 0.529238
vt 0.529477 1.000000
vt 0.482999 1.000000
vt 0.378785 0.029238
vt 0.030579 0.029239
vt 0.409364 0.000000
vt 0.438841 0.529238
vt 0.438841 1.000000
vt 0.710749 0.529239
vt 0.710749 0.862175
vt 0.892020 0.862175
vt 0.892020 0.529238
vt 0.348205 0.529238
vt 0.348205 1.000000
vt 0.348205 0.529238
vt 0.000000 1.000000
vt 0.000000 0.529239
vt 0.000000 0.000000
vt 0.378785 0.500000
vt 0.818728 0.529238
vt 0.438841 0.529238
vt 1.000000 0.000000
vt 0.620113 0.529239
vt 0.529477 0.529239
vt 0.801385 0.862175
vt 0.801385 0.529238
vt 0.529477 0.529238
vt 0.378785 0.264619
vt 0.348205 1.000000
vn -1.0000 0.0000 0.0000
vn 0.0000 0.0000 -1.0000
vn 0.0000 0.0000 1.0000
vn 0.0000 -1.0000 0.0000
vn 0.0000 1.0000 0.0000
vn 1.0000 0.0000 0.0000
s off
f 14/1/1 22/2/1 18/3/1
f 4/4/2 10/5/2 3/6/2
f 29/7/2 15/8/2 26/9/2
f 12/10/3 1/11/3 11/12/3
f 10/13/4 1/14/4 3/15/4
f 4/16/5 12/17/5 9/18/5
f 7/19/6 9/20/6 8/21/6
f 5/22/6 10/23/6 7/19/6
f 8/21/6 12/24/6 6/25/6
f 6/25/6 11/26/6 5/22/6
f 28/27/5 21/28/5 29/29/5
f 26/30/4 17/31/4 27/32/4
f 27/33/3 20/34/3 28/35/3
f 23/36/1 19/37/1 24/38/1
f 8/39/3 28/35/3 7/40/3
f 6/41/4 27/32/4 8/42/4
f 7/43/5 29/29/5 5/44/5
f 5/45/2 26/9/2 6/46/2
f 26/47/6 28/48/6 27/49/6
f 14/1/1 16/50/1 19/37/1
f 22/2/1 13/51/1 18/3/1
f 14/1/1 19/37/1 22/2/1
f 4/4/2 9/52/2 10/5/2
f 29/7/2 21/53/2 15/8/2
f 12/10/3 2/54/3 1/11/3
f 10/13/4 11/55/4 1/14/4
f 4/16/5 2/56/5 12/17/5
f 7/19/6 10/23/6 9/20/6
f 5/22/6 11/26/6 10/23/6
f 8/21/6 9/20/6 12/24/6
f 6/25/6 12/24/6 11/26/6
f 28/27/5 20/57/5 21/28/5
f 26/30/4 15/58/4 17/31/4
f 27/33/3 17/59/3 20/34/3
f 24/38/1 18/3/1 25/60/1
f 18/3/1 13/51/1 25/60/1
f 25/60/1 23/36/1 24/38/1
f 19/37/1 16/50/1 24/38/1
f 8/39/3 27/33/3 28/35/3
f 6/41/4 26/30/4 27/32/4
f 7/43/5 28/27/5 29/29/5
f 5/45/2 29/7/2 26/9/2
f 26/47/6 29/61/6 28/48/6
