# Blender v2.81 (sub 16) OBJ File: 'wall.blend'
# www.blender.org
o Cube
v -0.587404 4.700154 -10.329391
v -0.587404 2.152763 -10.329391
v -0.587404 4.700154 -5.177826
v -0.587404 2.152763 -5.177826
v -1.000000 4.699841 -10.342383
v -1.000000 2.109573 -10.342383
v -1.000000 4.699841 -5.162028
v -1.000000 2.109573 -5.162028
v -0.587404 5.584975 -15.760551
v -0.587404 -1.000000 -15.760551
v -0.587404 5.584975 1.000000
v -0.587404 -1.000000 1.000000
v -1.000000 -1.000000 -15.760551
v -1.000000 -1.000000 1.000000
v -1.000000 5.584975 1.000000
v -1.000000 5.584975 -15.760551
v -0.587404 4.700154 -10.329391
v -0.587404 2.152763 -10.329391
v -0.587404 4.700154 -5.177826
v -0.587404 2.152763 -5.177826
v -0.959215 4.699998 -10.335887
v -0.959215 2.131168 -10.335887
v -0.959215 4.699998 -5.169927
v -0.959215 2.131168 -5.169927
v -0.587404 2.152763 -10.329391
v -0.587404 2.152763 -5.177826
vt 0.000000 0.081239
vt 1.000000 0.107898
vt 0.000000 0.107898
vt 0.000000 0.081239
vt 0.392885 0.054186
vt 0.392885 0.081239
vt 0.000000 1.000000
vt 0.000000 1.000000
vt 0.000000 1.000000
vt 1.000000 0.134998
vt 0.000000 0.107899
vt 1.000000 0.107899
vt 0.392885 0.081239
vt 0.785770 0.054208
vt 0.785770 0.081239
vt 0.675956 0.774572
vt 1.000000 1.000000
vt 0.675956 0.941885
vt 0.368593 0.774572
vt 0.000000 1.000000
vt 0.000000 0.567499
vt 0.368593 0.941885
vt 1.000000 0.567499
vt 0.632349 0.339235
vt 0.000000 0.134998
vt 1.000000 0.134998
vt 1.000000 0.567499
vt 0.632349 0.509363
vt 0.323269 0.339235
vt 0.000000 0.567499
vt 0.323269 0.509363
vt 0.000000 1.000000
vt 0.000000 1.000000
vt 0.701984 0.000000
vt 0.855241 0.002699
vt 0.701975 0.002699
vt 0.392885 0.027039
vt 0.701494 0.029929
vt 0.393273 0.029929
vt 0.000000 1.000000
vt 0.000000 1.000000
vt 0.309080 0.027087
vt 0.000471 0.029766
vt 0.000000 0.027087
vt 0.000000 1.000000
vt 0.856511 0.027103
vt 0.703254 0.029812
vt 0.701965 0.027103
vt 0.701023 0.054208
vt 0.704542 0.054208
vt 0.856520 0.029812
vt 0.856530 0.054208
vt 0.000943 0.054186
vt 0.308693 0.029766
vt 0.308305 0.054186
vt 0.853953 0.027103
vt 1.000000 0.081239
vt 0.000000 0.054186
vt 0.000000 0.134998
vt 0.392885 0.054208
vt 0.856530 0.000000
vt 0.701965 0.027039
vt 0.393661 0.054208
vt 0.701965 0.027103
vn 0.0000 1.0000 0.0000
vn 0.0000 0.0000 1.0000
vn 0.0000 -1.0000 0.0000
vn 0.0000 0.0000 -1.0000
vn 1.0000 0.0000 0.0000
vn -1.0000 0.0000 0.0000
vn -0.1573 0.0000 0.9875
vn -0.4679 0.8838 0.0000
vn 0.0038 -1.0000 0.0000
vn -0.1901 0.0000 -0.9818
vn -0.0580 0.9983 0.0000
vn -0.0212 0.0000 -0.9998
vn 0.0004 -1.0000 0.0000
vn -0.0175 0.0000 0.9998
vn -0.1573 0.0000 0.9876
vn -0.1902 0.0000 -0.9818
s off
f 16/1/1 11/2/1 9/3/1
f 11/4/2 14/5/2 12/6/2
f 4/7/2 25/8/2 26/9/2
f 10/10/3 14/11/3 13/12/3
f 16/13/4 10/14/4 13/15/4
f 2/16/5 9/17/5 1/18/5
f 4/19/5 11/20/5 12/21/5
f 3/22/5 9/17/5 11/20/5
f 4/19/5 10/23/5 2/16/5
f 8/24/6 13/25/6 14/26/6
f 8/24/6 15/27/6 7/28/6
f 6/29/6 16/30/6 13/25/6
f 7/28/6 16/30/6 5/31/6
f 3/32/2 26/9/2 19/33/2
f 5/34/7 22/35/7 21/36/7
f 6/37/8 24/38/8 22/39/8
f 1/40/2 19/33/2 17/41/2
f 5/42/9 23/43/9 7/44/9
f 2/45/2 17/41/2 25/8/2
f 7/46/10 24/47/10 8/48/10
f 20/49/11 22/39/11 24/38/11
f 20/50/12 23/51/12 19/52/12
f 19/53/13 21/54/13 17/55/13
f 18/56/14 21/36/14 22/35/14
f 16/1/1 15/57/1 11/2/1
f 11/4/2 15/58/2 14/5/2
f 4/7/2 2/45/2 25/8/2
f 10/10/3 12/59/3 14/11/3
f 16/13/4 9/60/4 10/14/4
f 2/16/5 10/23/5 9/17/5
f 4/19/5 3/22/5 11/20/5
f 3/22/5 1/18/5 9/17/5
f 4/19/5 12/21/5 10/23/5
f 8/24/6 6/29/6 13/25/6
f 8/24/6 14/26/6 15/27/6
f 6/29/6 5/31/6 16/30/6
f 7/28/6 15/27/6 16/30/6
f 3/32/2 4/7/2 26/9/2
f 5/34/15 6/61/15 22/35/15
f 6/37/8 8/62/8 24/38/8
f 1/40/2 3/32/2 19/33/2
f 5/42/9 21/54/9 23/43/9
f 2/45/2 1/40/2 17/41/2
f 7/46/16 23/51/16 24/47/16
f 20/49/11 18/63/11 22/39/11
f 20/50/12 24/47/12 23/51/12
f 19/53/13 23/43/13 21/54/13
f 18/56/14 17/64/14 21/36/14
