# Blender v2.81 (sub 16) OBJ File: 'window.blend'
# www.blender.org
o Cube.001
v -1.331764 2.426101 -9.981825
v -1.331764 2.141433 -10.326242
v -1.331764 2.426101 -7.981826
v -1.331764 4.700598 -10.326242
v -0.238954 2.141433 -10.326242
v -1.331764 2.141433 -10.326242
v -0.238954 2.141431 -5.153803
v -0.238954 2.141433 -10.326242
v -0.238955 2.426101 -7.505741
v -0.238954 4.700598 -5.153803
v -1.331764 2.141431 -5.153803
v -0.238954 2.141431 -5.153803
v -0.238954 4.700598 -10.326242
v -1.331764 4.426103 -7.505741
v -0.238955 2.426101 -7.505741
v -1.331764 2.426101 -7.505741
v -1.331764 2.426101 -9.981825
v -0.238954 2.426101 -7.981826
v -1.331764 2.426101 -7.981826
v -0.238954 4.426103 -9.981825
v -1.331764 4.426103 -7.981826
v -0.238954 4.426103 -7.981826
v -0.238955 4.426103 -5.505741
v -1.331764 2.426101 -5.505741
v -0.238955 2.426101 -5.505741
v -0.238955 4.426103 -7.505741
v -0.238954 4.426103 -7.981826
v -0.238955 4.426103 -7.505741
v -1.331764 4.426103 -5.505741
v -1.331764 4.426103 -7.981826
v -1.331764 4.426103 -7.505741
v -1.331764 4.700598 -10.326242
v -1.331764 4.426103 -9.981825
v -0.238954 2.426101 -9.981825
v -1.331764 2.141431 -5.153803
v -1.331764 4.700598 -5.153803
v -1.331764 2.426101 -5.505741
v -1.331764 4.426103 -5.505741
v -1.331764 2.426101 -7.505741
v -0.238954 4.700598 -10.326242
v -0.238954 2.426101 -9.981825
v -0.238954 4.426103 -9.981825
v -0.238954 2.426101 -7.981826
v -0.238955 2.426101 -5.505741
v -1.331764 4.700598 -5.153803
v -0.238954 4.700598 -5.153803
v -0.238955 4.426103 -5.505741
v -1.331764 4.426103 -9.981825
vt 0.270878 0.043052
vt 0.304780 0.000000
vt 0.270878 0.293052
vt 0.130147 0.646555
vt 0.260293 0.966451
vt 0.130147 0.966451
vt 0.304780 0.646555
vt 0.304780 0.000000
vt 0.338683 0.352563
vt 0.130147 0.966451
vt 0.000000 0.646555
vt 0.130147 0.646555
vt 0.739707 0.646555
vt 0.869853 0.000000
vt 0.869853 0.646555
vt 0.609560 0.646555
vt 0.739707 0.000000
vt 0.739707 0.646555
vt 0.739707 0.646555
vt 0.869853 0.896556
vt 0.739707 0.896556
vt 1.000000 0.500000
vt 0.869853 0.250000
vt 1.000000 0.250000
vt 1.000000 0.250000
vt 0.869853 0.000000
vt 1.000000 0.000000
vt 0.390440 0.896555
vt 0.260293 0.646555
vt 0.390440 0.646555
vt 0.739707 0.896555
vt 0.609560 0.646555
vt 0.739707 0.646555
vt 0.576870 0.352563
vt 0.576870 0.293052
vt 1.000000 0.750000
vt 0.869853 0.500000
vt 1.000000 0.500000
vt 0.032691 0.293052
vt 0.032691 0.352563
vt 0.000000 0.000000
vt 1.000000 1.000000
vt 0.869853 0.750000
vt 1.000000 0.750000
vt 0.390440 0.646555
vt 0.520586 0.896555
vt 0.390440 0.896555
vt 0.304780 0.646555
vt 0.000000 0.646555
vt 0.270878 0.602563
vt 0.032691 0.602563
vt 0.270878 0.352563
vt 0.260293 0.646555
vt 0.609560 0.000000
vt 0.338683 0.043052
vt 0.576870 0.043052
vt 0.338683 0.293052
vt 0.338683 0.602563
vt 0.000000 0.966451
vt 0.739707 0.000000
vt 0.609560 0.000000
vt 0.869853 0.646555
vt 0.869853 0.500000
vt 0.869853 0.250000
vt 0.260293 0.896555
vt 0.609560 0.896555
vt 0.609560 0.646555
vt 0.576870 0.602563
vt 0.869853 0.750000
vt 0.032691 0.043052
vt 0.869853 1.000000
vt 0.520586 0.646555
vn -1.0000 -0.0000 0.0000
vn 0.0000 0.0000 -1.0000
vn 1.0000 0.0000 -0.0000
vn 0.0000 0.0000 1.0000
vn 0.0000 -1.0000 -0.0000
vn 0.0000 1.0000 0.0000
s 1
f 1/1/1 2/2/1 3/3/1
f 4/4/2 5/5/2 6/6/2
f 7/7/3 8/8/3 9/9/3
f 10/10/4 11/11/4 12/12/4
f 5/13/5 11/14/5 6/15/5
f 4/16/6 10/17/6 13/18/6
f 14/19/2 15/20/2 16/21/2
f 17/22/5 18/23/5 19/24/5
f 20/25/6 21/26/6 22/27/6
f 22/28/4 19/29/4 18/30/4
f 23/31/4 24/32/4 25/33/4
f 26/34/3 9/9/3 27/35/3
f 28/36/6 29/37/6 23/38/6
f 30/39/1 31/40/1 32/41/1
f 16/42/5 25/43/5 24/44/5
f 33/45/2 34/46/2 17/47/2
f 35/48/1 36/49/1 37/50/1
f 36/49/1 38/51/1 37/50/1
f 37/50/1 39/52/1 35/48/1
f 39/52/1 3/3/1 2/2/1
f 35/48/1 39/52/1 2/2/1
f 4/4/2 13/53/2 5/5/2
f 8/8/3 40/54/3 41/55/3
f 40/54/3 42/56/3 41/55/3
f 41/55/3 43/57/3 8/8/3
f 43/57/3 9/9/3 8/8/3
f 44/58/3 7/7/3 9/9/3
f 10/10/4 45/59/4 11/11/4
f 5/13/5 12/60/5 11/14/5
f 4/16/6 45/61/6 10/17/6
f 14/19/2 28/62/2 15/20/2
f 17/22/5 34/63/5 18/23/5
f 20/25/6 33/64/6 21/26/6
f 22/28/4 21/65/4 19/29/4
f 23/31/4 29/66/4 24/32/4
f 46/67/3 7/7/3 44/58/3
f 46/67/3 44/58/3 47/68/3
f 42/56/3 40/54/3 27/35/3
f 40/54/3 46/67/3 26/34/3
f 27/35/3 40/54/3 26/34/3
f 9/9/3 43/57/3 27/35/3
f 46/67/3 47/68/3 26/34/3
f 28/36/6 14/69/6 29/37/6
f 32/41/1 2/2/1 1/1/1
f 32/41/1 1/1/1 48/70/1
f 38/51/1 36/49/1 31/40/1
f 36/49/1 32/41/1 31/40/1
f 3/3/1 39/52/1 31/40/1
f 32/41/1 48/70/1 30/39/1
f 30/39/1 3/3/1 31/40/1
f 16/42/5 15/71/5 25/43/5
f 33/45/2 20/72/2 34/46/2
