# Blender v2.81 (sub 16) OBJ File: 'woodStorage.blend'
# www.blender.org
o Cube
v 0.851768 2.357203 -0.928787
v 1.000000 2.505435 -1.000000
v 0.851767 0.514646 -0.928787
v 1.000000 0.366413 -1.000000
v -0.851767 2.357203 -0.928787
v -1.000000 2.505435 -1.000000
v -0.851767 0.514646 -0.928787
v -1.000000 0.366413 -1.000000
v 1.000000 0.366413 0.349420
v -1.000000 0.366413 0.349420
v 1.000000 2.505435 0.349420
v -1.000000 2.505435 0.349420
v 0.863696 0.502717 0.349420
v -0.863696 0.502718 0.349420
v 0.863696 2.369131 0.349420
v -0.863695 2.369131 0.349420
v 1.000000 0.366413 -1.000000
v 1.000000 0.366413 0.349420
v -1.000000 0.366413 0.349420
v -1.000000 0.366413 -1.000000
v -1.000000 0.002436 -1.000000
v -1.000000 0.002436 0.349420
v 1.000000 0.002436 0.349420
v 1.000000 0.002436 -1.000000
v -1.000000 2.505435 0.349420
v -1.000000 0.366413 0.349420
v -0.863696 0.512192 0.349420
v 0.863696 2.359656 0.349420
v -0.863696 0.502718 0.349420
v -0.863695 2.369131 0.349420
v 0.863696 2.369131 0.349420
v 1.000000 2.505435 0.349420
v 0.863696 0.502717 0.349420
v -1.000000 0.366413 0.349420
v -1.000000 0.002436 0.349420
v 1.000000 0.002436 0.349420
v 1.000000 0.366413 0.349420
v 1.000000 0.366413 0.349420
v 0.947860 0.002436 -1.000000
v -1.000000 0.366413 -1.000000
v -1.000000 2.505435 -1.000000
v -0.842010 0.174493 0.349420
v 0.823788 0.174493 -1.000000
v -0.842010 0.174493 -1.000000
v 0.823788 0.174493 -1.000000
v -0.945555 0.002436 -1.000000
v 1.000000 2.505435 -1.000000
v 1.000000 0.366413 -1.000000
v 0.823788 0.174493 0.349420
v 1.000000 0.366413 -1.000000
v 1.000000 0.002436 -1.000000
v -0.842010 0.174493 -1.000000
v -1.000000 0.002436 -1.000000
v -1.000000 0.366413 -1.000000
v 1.000000 2.505435 0.349420
v 0.863696 2.369131 0.349420
v -0.863696 0.502718 0.349420
v -1.000000 0.366413 0.349420
v -0.945555 0.002436 0.349420
v -0.842010 0.174493 0.349420
v 0.823788 0.174493 0.349420
v 0.947860 0.002436 0.349420
vt 0.794481 0.386215
vt 0.526998 0.670524
vt 0.526998 0.386215
vt 0.526998 0.979125
vt 0.739315 0.670523
vt 0.739315 0.979125
vt 0.794481 0.388056
vt 0.995599 0.652753
vt 0.794481 0.650913
vt 0.314681 0.768979
vt 0.515794 1.000000
vt 0.314681 0.999584
vt 0.739315 0.672122
vt 0.940433 0.953933
vt 0.739315 0.951910
vt 1.000000 0.000000
vt 0.841032 0.197558
vt 0.843228 0.000325
vt 0.314033 0.386215
vt 0.292631 0.407247
vt 0.000000 0.386215
vt 0.212317 0.924485
vt 0.245693 0.716268
vt 0.245693 0.924485
vt 0.245693 0.716304
vt 0.275228 0.924484
vt 0.245693 0.924520
vt 0.841032 0.000000
vt 0.841032 0.267709
vt 0.628714 0.267709
vt 0.314681 0.330053
vt 0.286956 0.359667
vt 0.000000 0.330053
vt 0.526998 0.766289
vt 0.314681 0.441605
vt 0.526998 0.441484
vt 0.000000 0.000000
vt 0.000000 0.000000
vt 0.000000 0.000000
vt 0.314681 0.674205
vt 0.314681 0.386215
vt 0.314681 0.672743
vt 0.314033 0.386215
vt 0.314033 0.674205
vt 0.314033 0.387677
vt 0.628714 0.330053
vt 0.628714 0.386215
vt 0.603907 0.359667
vt 0.285037 0.716268
vt 0.280239 0.924485
vt 0.280239 0.716268
vt 0.000000 0.000000
vt 0.000000 0.000000
vt 0.000000 0.000000
vt 0.212317 0.973303
vt 0.000000 0.716268
vt 0.212317 0.716268
vt 0.280239 0.924485
vt 0.275228 0.716268
vt 0.280239 0.716268
vt 0.794481 0.670524
vt 0.526998 0.670524
vt 0.995599 0.386215
vt 0.515794 0.766410
vt 0.940433 0.670523
vt 1.000000 0.197229
vt 0.314033 0.716268
vt 0.292631 0.695237
vt 0.021402 0.407247
vt 0.212317 0.716268
vt 0.275228 0.716268
vt 0.841032 0.267709
vt 0.841032 0.313262
vt 0.628714 0.313262
vt 0.628714 0.267709
vt 0.628714 0.000000
vt 0.000000 0.330053
vt 0.000000 0.000000
vt 0.314681 0.000000
vt 0.314681 0.330053
vt 0.314681 0.386215
vt 0.306477 0.386215
vt 0.000000 0.386215
vt 0.024858 0.359667
vt 0.008566 0.386215
vt 0.314681 0.766410
vt 0.314681 0.386336
vt 0.526998 0.386215
vt 0.526998 0.441484
vt 0.314681 0.330053
vt 0.314681 0.000000
vt 0.336083 0.021032
vt 0.336083 0.309021
vt 0.322868 0.386215
vt 0.314681 0.386215
vt 0.342349 0.359667
vt 0.607312 0.309021
vt 0.628714 0.330053
vt 0.620165 0.386215
vt 0.285037 0.924485
vt 0.000000 0.973303
vt 0.275228 0.924485
vn 0.0000 -0.0000 1.0000
vn 0.0000 1.0000 0.0000
vn 0.0000 1.0000 0.0093
vn -1.0000 0.0000 0.0093
vn 1.0000 -0.0000 0.0093
vn 0.0000 -1.0000 0.0093
vn -0.8111 -0.5849 0.0000
vn 0.8568 -0.5156 0.0000
vn -1.0000 0.0000 0.0000
vn 0.0000 0.0000 -1.0000
vn 1.0000 -0.0000 -0.0000
vn 0.0000 -1.0000 0.0000
s off
f 5/1/1 3/2/1 1/3/1
f 12/4/2 2/5/2 6/6/2
f 7/7/3 13/8/3 3/9/3
f 3/10/4 15/11/4 1/12/4
f 5/13/5 14/14/5 7/15/5
f 1/16/6 16/17/6 5/18/6
f 25/19/1 30/20/1 32/21/1
f 61/22/7 39/23/7 62/24/7
f 46/25/8 60/26/8 59/27/8
f 6/28/9 20/29/9 19/30/9
f 50/31/10 43/32/10 54/33/10
f 2/34/11 18/35/11 17/36/11
f 55/37/1 37/38/1 38/39/1
f 14/40/1 16/41/1 27/42/1
f 15/43/1 13/44/1 28/45/1
f 58/46/1 35/47/1 60/48/1
f 62/49/12 51/50/12 36/51/12
f 18/52/1 11/53/1 9/54/1
f 52/55/2 49/56/2 45/57/2
f 59/58/12 53/59/12 46/60/12
f 5/1/1 7/61/1 3/2/1
f 12/4/2 11/62/2 2/5/2
f 7/7/3 14/63/3 13/8/3
f 3/10/4 13/64/4 15/11/4
f 5/13/5 16/65/5 14/14/5
f 1/16/6 15/66/6 16/17/6
f 25/19/1 26/67/1 30/20/1
f 26/67/1 29/68/1 30/20/1
f 30/20/1 31/69/1 32/21/1
f 61/22/7 43/70/7 39/23/7
f 46/25/8 44/71/8 60/26/8
f 6/28/1 8/72/1 20/29/1
f 20/29/9 21/73/9 22/74/9
f 19/30/1 10/75/1 12/76/1
f 20/29/9 22/74/9 19/30/9
f 12/76/9 6/28/9 19/30/9
f 54/33/1 40/77/1 41/78/1
f 47/79/1 48/80/1 50/31/1
f 50/31/10 51/81/10 43/32/10
f 51/81/10 39/82/10 43/32/10
f 41/78/10 47/79/10 50/31/10
f 53/83/10 54/33/10 44/84/10
f 54/33/10 41/78/10 50/31/10
f 44/84/10 54/33/10 43/32/10
f 44/84/10 46/85/10 53/83/10
f 2/34/11 11/86/11 18/35/11
f 18/35/11 23/87/11 24/88/11
f 17/36/1 4/89/1 2/34/1
f 18/35/11 24/88/11 17/36/11
f 37/90/1 55/91/1 56/92/1
f 37/90/1 56/92/1 33/93/1
f 62/94/1 36/95/1 61/96/1
f 36/95/1 37/90/1 61/96/1
f 37/90/1 33/93/1 61/96/1
f 33/93/1 57/97/1 61/96/1
f 58/46/1 34/98/1 35/47/1
f 57/97/1 58/46/1 60/48/1
f 60/48/1 61/96/1 57/97/1
f 35/47/1 59/99/1 60/48/1
f 62/49/12 39/100/12 51/50/12
f 52/55/2 42/101/2 49/56/2
f 59/58/12 35/102/12 53/59/12
